REM COMMENT "Generated by IcecastMetadataRecorder https://github.com/eshaz/icecast-metadata-js"
REM BR "16"
REM METAINT "64"
REM DATE "2020-07-29T21:16:11.222Z"
TITLE "isics-all"
FILE "isics-all.mp3" WAVE
  TRACK 1 AUDIO
    TITLE "2020-07-29T21:20:26.038Z TO:5002 Department of Public Safety - Area A Law 2A - DPS District #1 FROM:10984"
    INDEX 01 04:14:61
  TRACK 2 AUDIO
    TITLE "2020-07-29T21:20:31.638Z TO:5002 Department of Public Safety - Area A Law 2A - DPS District #1 FROM:11030"
    INDEX 01 04:20:31
  TRACK 3 AUDIO
    TITLE "2020-07-29T21:20:44.950Z TO:1101 Polk County - Westcom Law Enforcement 1 FROM:1004"
    INDEX 01 04:33:55
  TRACK 4 AUDIO
    TITLE "2020-07-29T21:20:47.030Z TO:1101 Polk County - Westcom Law Enforcement 1 FROM:1401"
    INDEX 01 04:35:61
  TRACK 5 AUDIO
    TITLE "2020-07-29T21:20:49.142Z TO:1101 Polk County - Westcom Law Enforcement 1 FROM:1004"
    INDEX 01 04:37:69
  TRACK 6 AUDIO
    TITLE "2020-07-29T21:20:52.630Z TO:1101 Polk County - Westcom Law Enforcement 1 FROM:1401"
    INDEX 01 04:41:31
  TRACK 7 AUDIO
    TITLE "2020-07-29T21:20:54.038Z TO:24631 Dallas County Fire/EMS Operations FROM:2520043"
    INDEX 01 04:42:61
  TRACK 8 AUDIO
    TITLE "2020-07-29T21:20:56.822Z TO:24631 Dallas County Fire/EMS Operations FROM:2559981"
    INDEX 01 04:45:45
  TRACK 9 AUDIO
    TITLE "2020-07-29T21:20:58.934Z TO:24631 Dallas County Fire/EMS Operations FROM:2520043"
    INDEX 01 04:47:53
  TRACK 10 AUDIO
    TITLE "END"
    INDEX 01 04:49:09